<svg width="512" height="440" viewBox="0 0 512 440" fill="none" xmlns="http://www.w3.org/2000/svg">
<path d="M392.857 256.354H374.583C371.914 256.354 369.724 257.209 368.02 258.927C366.302 260.635 365.447 262.824 365.447 265.49V356.851C365.447 369.414 360.977 380.166 352.032 389.113C343.087 398.058 332.331 402.527 319.768 402.527H82.224C69.662 402.527 58.907 398.058 49.96 389.113C41.015 380.167 36.543 369.415 36.543 356.851V119.31C36.543 106.748 41.014 95.997 49.96 87.051C58.907 78.104 69.662 73.633 82.224 73.633H283.218C285.887 73.633 288.077 72.774 289.788 71.063C291.499 69.35 292.354 67.163 292.354 64.496V46.221C292.354 43.559 291.499 41.368 289.788 39.658C288.077 37.945 285.887 37.09 283.218 37.09H82.224C59.576 37.09 40.208 45.132 24.122 61.215C8.042 77.297 0 96.665 0 119.313V356.855C0 379.502 8.042 398.873 24.123 414.95C40.209 431.034 59.577 439.08 82.225 439.08H319.768C342.415 439.08 361.785 431.034 377.869 414.95C393.954 398.873 401.996 379.503 401.996 356.855V265.497C401.996 262.828 401.14 260.638 399.422 258.927C397.709 257.209 395.519 256.354 392.857 256.354Z" fill="#8A1538"/>
<path d="M506.199 5.971C502.582 2.354 498.294 0.546997 493.349 0.546997H347.171C342.223 0.546997 337.938 2.354 334.324 5.971C330.707 9.586 328.896 13.869 328.896 18.818C328.896 23.767 330.707 28.051 334.324 31.668L384.571 81.916L198.424 268.067C196.518 269.97 195.568 272.16 195.568 274.63C195.568 277.109 196.521 279.298 198.424 281.201L230.972 313.745C232.875 315.648 235.065 316.597 237.539 316.597C240.013 316.597 242.204 315.649 244.106 313.745L430.254 127.597L480.505 177.845C484.119 181.462 488.403 183.271 493.352 183.271C498.301 183.271 502.585 181.462 506.203 177.845C509.82 174.229 511.627 169.947 511.627 164.998V18.818C511.626 13.866 509.813 9.586 506.199 5.971Z" fill="#8A1538"/>
</svg>
